<svg aria-hidden="true" style="position: absolute; width: 0; height: 0; overflow: hidden;" version="1.1" xmlns="http://www.w3.org/2000/svg" xmlns:xlink="http://www.w3.org/1999/xlink">
<defs>
<symbol id="icon--2-1" viewBox="0 0 49 32">
<path fill="#395c4b" style="fill: var(--color1, #395c4b)" d="M24.727 0.97c-13.382 0-24.243 5.43-24.243 12.121 0 5.43 7.127 10.012 16.97 11.564v4.897c0 1.091 1.309 1.623 2.061 0.848l6.764-6.764c0.224-0.218 0.363-0.523 0.363-0.86s-0.139-0.642-0.363-0.86l-0-0-6.764-6.764c-0.218-0.214-0.518-0.346-0.848-0.346-0.67 0-1.213 0.543-1.213 1.213 0 0.002 0 0.004 0 0.006v-0 3.684c-7.636-1.357-12.121-4.607-12.121-6.618 0-2.57 7.369-7.273 19.393-7.273s19.395 4.703 19.395 7.273c0 1.6-2.909 4.073-8.049 5.673-0.964 0.315-1.648 1.207-1.648 2.258 0 0.007 0 0.015 0 0.022v-0.001c0 1.623 1.575 2.812 3.103 2.327 6.861-2.134 11.443-5.94 11.443-10.279 0-6.691-10.861-12.121-24.243-12.121z"></path>
</symbol>
</defs>
</svg>
