<svg aria-hidden="true" style="position: absolute; width: 0; height: 0; overflow: hidden;" version="1.1" xmlns="http://www.w3.org/2000/svg" xmlns:xlink="http://www.w3.org/1999/xlink">
<defs>
<symbol id="icon-round-2-1" viewBox="0 0 51 33">
<path fill="#395c4b" style="fill: var(--color1, #395c4b)" d="M25.5 1.001c-13.8 0-25 5.599-25 12.499 0 5.599 7.35 10.324 17.501 11.925v5.051c0 1.125 1.35 1.674 2.126 0.874l6.975-6.975c0.231-0.225 0.375-0.539 0.375-0.887s-0.144-0.662-0.375-0.887l-0-0-6.975-6.975c-0.225-0.22-0.534-0.356-0.874-0.356-0.691 0-1.251 0.56-1.251 1.251 0 0.002 0 0.004 0 0.006v-0 3.8c-7.875-1.4-12.499-4.75-12.499-6.825 0-2.651 7.599-7.5 20-7.5s20.001 4.849 20.001 7.5c0 1.65-3 4.2-8.301 5.85-0.994 0.325-1.7 1.245-1.7 2.329 0 0.008 0 0.015 0 0.023v-0.001c0 1.674 1.625 2.899 3.199 2.4 7.076-2.2 11.8-6.126 11.8-10.601 0-6.9-11.201-12.499-25-12.499z"></path>
</symbol>
<symbol id="round" viewBox="0 0 49 32">
<path fill="#395c4b" style="fill: var(--color1, #395c4b)" d="M24.727 0.97c-13.382 0-24.243 5.43-24.243 12.121 0 5.43 7.127 10.012 16.97 11.564v4.897c0 1.091 1.309 1.623 2.061 0.848l6.764-6.764c0.224-0.218 0.363-0.523 0.363-0.86s-0.139-0.642-0.363-0.86l-0-0-6.764-6.764c-0.218-0.214-0.518-0.346-0.848-0.346-0.67 0-1.213 0.543-1.213 1.213 0 0.002 0 0.004 0 0.006v-0 3.684c-7.636-1.357-12.121-4.607-12.121-6.618 0-2.57 7.369-7.273 19.393-7.273s19.395 4.703 19.395 7.273c0 1.6-2.909 4.073-8.049 5.673-0.964 0.315-1.648 1.207-1.648 2.258 0 0.007 0 0.015 0 0.022v-0.001c0 1.623 1.575 2.812 3.103 2.327 6.861-2.134 11.443-5.94 11.443-10.279 0-6.691-10.861-12.121-24.243-12.121z"></path>
</symbol>
</defs>
</svg>
